<mxfile host="app.diagrams.net" modified="2022-09-20T07:31:22.896Z" agent="5.0 (Macintosh; Intel Mac OS X 10_15_7) AppleWebKit/537.36 (KHTML, like Gecko) Chrome/105.0.0.0 Safari/537.36" etag="-4VAibeRMasSKE0gJwi8" version="20.3.0" type="github">
  <diagram id="NvsE817QPaurnyZbksCV" name="第 1 页">
    <mxGraphModel dx="1234" dy="709" grid="1" gridSize="10" guides="1" tooltips="1" connect="1" arrows="1" fold="1" page="1" pageScale="1" pageWidth="827" pageHeight="1169" background="#ffffff" math="0" shadow="0">
      <root>
        <mxCell id="0" />
        <mxCell id="1" parent="0" />
        <mxCell id="2gR4U3w3z24vfDCVuYkH-27" style="rounded=0;orthogonalLoop=1;jettySize=auto;html=1;entryX=0;entryY=0.5;entryDx=0;entryDy=0;strokeWidth=2;fontSize=21;exitX=1.004;exitY=0.416;exitDx=0;exitDy=0;exitPerimeter=0;" parent="1" source="2gR4U3w3z24vfDCVuYkH-12" target="2gR4U3w3z24vfDCVuYkH-26" edge="1">
          <mxGeometry relative="1" as="geometry" />
        </mxCell>
        <mxCell id="2gR4U3w3z24vfDCVuYkH-11" value="SendResponse" style="swimlane;childLayout=stackLayout;horizontal=1;startSize=30;horizontalStack=0;rounded=1;fontSize=19;fontStyle=0;strokeWidth=2;resizeParent=0;resizeLast=1;shadow=0;dashed=0;align=center;" parent="1" vertex="1">
          <mxGeometry x="200" y="160" width="240" height="160" as="geometry" />
        </mxCell>
        <mxCell id="2gR4U3w3z24vfDCVuYkH-12" value="request&#xa;responseSend&#xa;onCompleteCallback&#xa;responseAsString" style="align=center;strokeColor=none;fillColor=none;spacingLeft=4;fontSize=21;verticalAlign=top;resizable=0;rotatable=0;part=1;" parent="2gR4U3w3z24vfDCVuYkH-11" vertex="1">
          <mxGeometry y="30" width="240" height="130" as="geometry" />
        </mxCell>
        <mxCell id="2gR4U3w3z24vfDCVuYkH-16" value="NoResponse" style="swimlane;childLayout=stackLayout;horizontal=1;startSize=30;horizontalStack=0;rounded=1;fontSize=19;fontStyle=0;strokeWidth=2;resizeParent=0;resizeLast=1;shadow=0;dashed=0;align=center;" parent="1" vertex="1">
          <mxGeometry x="200" y="370" width="240" height="90" as="geometry" />
        </mxCell>
        <mxCell id="2gR4U3w3z24vfDCVuYkH-17" value="request" style="align=center;strokeColor=none;fillColor=none;spacingLeft=4;fontSize=21;verticalAlign=top;resizable=0;rotatable=0;part=1;" parent="2gR4U3w3z24vfDCVuYkH-16" vertex="1">
          <mxGeometry y="30" width="240" height="60" as="geometry" />
        </mxCell>
        <mxCell id="2gR4U3w3z24vfDCVuYkH-18" value="CloseConnectionResposne" style="swimlane;childLayout=stackLayout;horizontal=1;startSize=30;horizontalStack=0;rounded=1;fontSize=19;fontStyle=0;strokeWidth=2;resizeParent=0;resizeLast=1;shadow=0;dashed=0;align=center;" parent="1" vertex="1">
          <mxGeometry x="200" y="510" width="240" height="90" as="geometry" />
        </mxCell>
        <mxCell id="2gR4U3w3z24vfDCVuYkH-19" value="request" style="align=center;strokeColor=none;fillColor=none;spacingLeft=4;fontSize=21;verticalAlign=top;resizable=0;rotatable=0;part=1;" parent="2gR4U3w3z24vfDCVuYkH-18" vertex="1">
          <mxGeometry y="30" width="240" height="60" as="geometry" />
        </mxCell>
        <mxCell id="2gR4U3w3z24vfDCVuYkH-20" value="StartThrottingResponse" style="swimlane;childLayout=stackLayout;horizontal=1;startSize=30;horizontalStack=0;rounded=1;fontSize=19;fontStyle=0;strokeWidth=2;resizeParent=0;resizeLast=1;shadow=0;dashed=0;align=center;" parent="1" vertex="1">
          <mxGeometry x="200" y="640" width="240" height="90" as="geometry" />
        </mxCell>
        <mxCell id="2gR4U3w3z24vfDCVuYkH-21" value="request" style="align=center;strokeColor=none;fillColor=none;spacingLeft=4;fontSize=21;verticalAlign=top;resizable=0;rotatable=0;part=1;" parent="2gR4U3w3z24vfDCVuYkH-20" vertex="1">
          <mxGeometry y="30" width="240" height="60" as="geometry" />
        </mxCell>
        <mxCell id="2gR4U3w3z24vfDCVuYkH-23" value="EndThrottingResponse" style="swimlane;childLayout=stackLayout;horizontal=1;startSize=30;horizontalStack=0;rounded=1;fontSize=19;fontStyle=0;strokeWidth=2;resizeParent=0;resizeLast=1;shadow=0;dashed=0;align=center;" parent="1" vertex="1">
          <mxGeometry x="200" y="770" width="240" height="90" as="geometry" />
        </mxCell>
        <mxCell id="2gR4U3w3z24vfDCVuYkH-24" value="request" style="align=center;strokeColor=none;fillColor=none;spacingLeft=4;fontSize=21;verticalAlign=top;resizable=0;rotatable=0;part=1;" parent="2gR4U3w3z24vfDCVuYkH-23" vertex="1">
          <mxGeometry y="30" width="240" height="60" as="geometry" />
        </mxCell>
        <mxCell id="2gR4U3w3z24vfDCVuYkH-25" value="Response" style="swimlane;childLayout=stackLayout;horizontal=1;startSize=30;horizontalStack=0;rounded=1;fontSize=19;fontStyle=0;strokeWidth=2;resizeParent=0;resizeLast=1;shadow=0;dashed=0;align=center;" parent="1" vertex="1">
          <mxGeometry x="620" y="427" width="230" height="158" as="geometry" />
        </mxCell>
        <mxCell id="2gR4U3w3z24vfDCVuYkH-26" value="request&#xa;processor&#xa;responseString&#xa;onComplete" style="align=center;strokeColor=none;fillColor=none;spacingLeft=4;fontSize=21;verticalAlign=top;resizable=0;rotatable=0;part=1;" parent="2gR4U3w3z24vfDCVuYkH-25" vertex="1">
          <mxGeometry y="30" width="230" height="128" as="geometry" />
        </mxCell>
        <mxCell id="2gR4U3w3z24vfDCVuYkH-29" style="edgeStyle=none;rounded=0;orthogonalLoop=1;jettySize=auto;html=1;entryX=0;entryY=0.5;entryDx=0;entryDy=0;strokeWidth=2;fontSize=21;exitX=1;exitY=0.25;exitDx=0;exitDy=0;" parent="1" source="2gR4U3w3z24vfDCVuYkH-17" target="2gR4U3w3z24vfDCVuYkH-26" edge="1">
          <mxGeometry relative="1" as="geometry" />
        </mxCell>
        <mxCell id="2gR4U3w3z24vfDCVuYkH-31" style="edgeStyle=none;rounded=0;orthogonalLoop=1;jettySize=auto;html=1;entryX=0;entryY=0.5;entryDx=0;entryDy=0;strokeWidth=2;fontSize=21;exitX=1;exitY=0.25;exitDx=0;exitDy=0;" parent="1" source="2gR4U3w3z24vfDCVuYkH-19" target="2gR4U3w3z24vfDCVuYkH-26" edge="1">
          <mxGeometry relative="1" as="geometry" />
        </mxCell>
        <mxCell id="2gR4U3w3z24vfDCVuYkH-32" style="edgeStyle=none;rounded=0;orthogonalLoop=1;jettySize=auto;html=1;entryX=0;entryY=0.5;entryDx=0;entryDy=0;strokeWidth=2;fontSize=21;exitX=1;exitY=0.25;exitDx=0;exitDy=0;" parent="1" source="2gR4U3w3z24vfDCVuYkH-21" target="2gR4U3w3z24vfDCVuYkH-26" edge="1">
          <mxGeometry relative="1" as="geometry" />
        </mxCell>
        <mxCell id="2gR4U3w3z24vfDCVuYkH-33" style="edgeStyle=none;rounded=0;orthogonalLoop=1;jettySize=auto;html=1;entryX=0;entryY=0.5;entryDx=0;entryDy=0;strokeWidth=2;fontSize=21;exitX=1;exitY=0.25;exitDx=0;exitDy=0;" parent="1" source="2gR4U3w3z24vfDCVuYkH-24" target="2gR4U3w3z24vfDCVuYkH-26" edge="1">
          <mxGeometry relative="1" as="geometry" />
        </mxCell>
      </root>
    </mxGraphModel>
  </diagram>
</mxfile>
